<svg viewBox="0 0 24 24"><g transform="matrix(0.2,0,0,0.2,1.63,1.38)"><path d="M45.237,35.777C47.103,35.101 49.108,34.713 51.207,34.713C59.492,34.713 66.42,40.459 68.281,48.174C85.217,36.262 85.239,11.879 63.447,5.162C53.034,1.548 27.185,5.472 35.119,15.972C40.633,23.271 43.583,29.972 45.237,35.777Z"/><path d="M33.626,52.309C33.626,47.423 35.621,43.003 38.837,39.814C20.28,31.304 -0.586,43.197 4.15,65.311C6.076,76.169 22.138,96.788 27.431,84.732C31.195,76.143 35.73,70.216 40.086,65.911C36.145,62.688 33.626,57.791 33.626,52.309Z"/><path d="M91.123,63.301C81.152,62.713 73.711,60.26 68.019,57.451C65.817,64.641 59.124,69.877 51.207,69.877C49.02,69.877 46.936,69.459 45.003,68.73C43.829,88.822 62.088,103.894 81.006,91.864C90.518,86.286 104.262,64.065 91.123,63.301Z"/><path d="M64.125,52.309C64.125,59.428 58.351,65.213 51.207,65.213C44.076,65.213 38.291,59.428 38.291,52.309C38.291,45.163 44.076,39.392 51.207,39.392C58.351,39.391 64.125,45.163 64.125,52.309Z"/></g></svg>