<?xml version="1.0" encoding="utf-8"?>
<svg viewBox="0 0 192 192" xmlns="http://www.w3.org/2000/svg">
  <path style="fill: white;" d="M0 172 a20 20 0 0 0 20 20l152 0a20 20 0 0 0 20 -20l0 -152a20 20 0 0 0 -20 -20l-152 0a20 20 0 0 0 -20 20z"/>
  <path d="M 43.448 85.49 C 43.448 87.484 45.078 89.115 47.074 89.115 L 61.573 89.115 C 63.569 89.115 65.199 87.484 65.199 85.49 L 65.199 81.864 L 43.448 81.864 L 43.448 85.49 Z M 54.323 16.61 C 40.331 16.61 28.947 27.994 28.947 41.987 C 28.947 50.615 33.26 58.192 39.822 62.796 L 39.822 70.989 C 39.822 72.983 41.454 74.613 43.448 74.613 L 65.199 74.613 C 67.194 74.613 68.822 72.983 68.822 70.989 L 68.822 62.796 C 75.387 58.192 79.7 50.615 79.7 41.987 C 79.7 27.994 68.317 16.61 54.323 16.61 Z M 64.655 56.85 L 61.573 59.023 L 61.573 67.363 L 47.074 67.363 L 47.074 59.023 L 43.99 56.85 C 39.097 53.442 36.197 47.896 36.197 41.987 C 36.197 31.983 44.32 23.86 54.323 23.86 C 64.33 23.86 72.449 31.983 72.449 41.987 C 72.449 47.896 69.549 53.442 64.655 56.85 Z" style="fill: rgb(255, 195, 64);"/>
  <path d="M 27.905 120.448 C 24.197 120.448 21.879 116.432 23.733 113.222 C 24.594 111.73 26.185 110.814 27.905 110.814 L 71.263 110.814 C 81.151 110.814 87.333 121.519 82.389 130.084 C 80.096 134.057 75.854 136.508 71.263 136.508 L 35.934 136.508 C 33.462 136.508 31.918 139.184 33.155 141.325 C 33.728 142.317 34.788 142.931 35.934 142.931 L 71.263 142.931 C 81.151 142.931 87.333 153.637 82.389 162.201 C 80.096 166.173 75.854 168.624 71.263 168.624 L 27.905 168.624 C 24.197 168.624 21.879 164.607 23.733 161.397 C 24.594 159.906 26.185 158.989 27.905 158.989 L 71.263 158.989 C 73.734 158.989 75.28 156.312 74.043 154.171 C 73.471 153.178 72.409 152.566 71.263 152.566 L 35.934 152.566 C 26.046 152.566 19.866 141.859 24.81 133.295 C 27.104 129.321 31.346 126.871 35.934 126.871 L 71.263 126.871 C 73.734 126.871 75.28 124.195 74.043 122.055 C 73.471 121.06 72.409 120.448 71.263 120.448 Z" style="fill: rgb(255, 59, 48);"/>
  <g transform="matrix(0.654078, 0, 0, 0.654078, 105.526558, 18.380945)" style="fill: rgb(76, 217, 100);">
    <path d="M45.237,35.777C47.103,35.101 49.108,34.713 51.207,34.713C59.492,34.713 66.42,40.459 68.281,48.174C85.217,36.262 85.239,11.879 63.447,5.162C53.034,1.548 27.185,5.472 35.119,15.972C40.633,23.271 43.583,29.972 45.237,35.777Z"/>
    <path d="M33.626,52.309C33.626,47.423 35.621,43.003 38.837,39.814C20.28,31.304 -0.586,43.197 4.15,65.311C6.076,76.169 22.138,96.788 27.431,84.732C31.195,76.143 35.73,70.216 40.086,65.911C36.145,62.688 33.626,57.791 33.626,52.309Z"/>
    <path d="M91.123,63.301C81.152,62.713 73.711,60.26 68.019,57.451C65.817,64.641 59.124,69.877 51.207,69.877C49.02,69.877 46.936,69.459 45.003,68.73C43.829,88.822 62.088,103.894 81.006,91.864C90.518,86.286 104.262,64.065 91.123,63.301Z"/>
    <path d="M64.125,52.309C64.125,59.428 58.351,65.213 51.207,65.213C44.076,65.213 38.291,59.428 38.291,52.309C38.291,45.163 44.076,39.392 51.207,39.392C58.351,39.391 64.125,45.163 64.125,52.309Z"/>
  </g>
  <path d="M 160.699 124.439 L 139.934 103.673 L 119.167 124.439 C 107.722 135.887 107.722 154.491 119.167 165.939 C 124.89 171.659 132.412 174.523 139.934 174.523 C 147.457 174.523 154.977 171.659 160.699 165.939 C 172.148 154.491 172.148 135.887 160.699 124.439 Z M 139.934 167.222 C 134.062 167.222 128.525 164.946 124.378 160.763 C 120.195 156.582 117.917 151.079 117.917 145.207 C 117.917 139.335 120.195 133.798 124.378 129.651 L 139.934 114.056 L 139.934 167.222 Z" style="fill: rgb(90, 200, 250);"/>
</svg>