<?xml version="1.0" encoding="utf-8"?>
<svg viewBox="0 0 460 460" xmlns="http://www.w3.org/2000/svg">
  <path d="M230.149,120.939L65.986,256.274c0,0.191-0.048,0.472-0.144,0.855c-0.094,0.38-0.144,0.656-0.144,0.852v137.041c0,4.948,1.809,9.236,5.426,12.847c3.616,3.613,7.898,5.431,12.847,5.431h109.63V303.664h73.097v109.64h109.629c4.948,0,9.236-1.814,12.847-5.435c3.617-3.607,5.432-7.898,5.432-12.847V257.981c0-0.76-0.104-1.334-0.288-1.707L230.149,120.939z" style="fill: rgb(165, 214, 167);"/>
  <path d="M457.122,225.438L394.6,173.476V56.989c0-2.663-0.856-4.853-2.574-6.567c-1.704-1.712-3.894-2.568-6.563-2.568h-54.816c-2.666,0-4.855,0.856-6.57,2.568c-1.711,1.714-2.566,3.905-2.566,6.567v55.673l-69.662-58.245c-6.084-4.949-13.318-7.423-21.694-7.423c-8.375,0-15.608,2.474-21.698,7.423L3.172,225.438c-1.903,1.52-2.946,3.566-3.14,6.136c-0.193,2.568,0.472,4.811,1.997,6.713l17.701,21.128c1.525,1.712,3.521,2.759,5.996,3.142c2.285,0.192,4.57-0.476,6.855-1.998L230.149,95.817l197.57,164.741c1.526,1.328,3.521,1.991,5.996,1.991h0.858c2.471-0.376,4.463-1.43,5.996-3.138l17.703-21.125c1.522-1.906,2.189-4.145,1.991-6.716C460.068,229.007,459.021,226.961,457.122,225.438z" style="fill: rgb(165, 214, 167);"/>
  <path d="M 218.934 248.642 C 218.934 250.776 220.68 252.522 222.814 252.522 L 238.331 252.522 C 240.465 252.522 242.211 250.776 242.211 248.642 L 242.211 244.762 L 218.934 244.762 L 218.934 248.642 Z M 230.572 174.93 C 215.597 174.93 203.416 187.112 203.416 202.088 C 203.416 211.321 208.033 219.429 215.055 224.356 L 215.055 233.123 C 215.055 235.258 216.8 237.003 218.934 237.003 L 242.211 237.003 C 244.345 237.003 246.091 235.258 246.091 233.123 L 246.091 224.356 C 253.113 219.429 257.73 211.321 257.73 202.088 C 257.73 187.112 245.548 174.93 230.572 174.93 Z M 241.63 217.993 L 238.331 220.321 L 238.331 229.244 L 222.814 229.244 L 222.814 220.321 L 219.516 217.993 C 214.279 214.347 211.175 208.411 211.175 202.088 C 211.175 191.379 219.865 182.689 230.572 182.689 C 241.28 182.689 249.97 191.379 249.97 202.088 C 249.97 208.411 246.866 214.347 241.63 217.993 Z" style="fill: rgba(255, 255, 255, 0.4);"/>
  <path d="M 103.978 338.12 C 100.364 338.12 98.104 334.206 99.912 331.076 C 100.75 329.623 102.301 328.728 103.978 328.728 L 146.242 328.728 C 155.883 328.728 161.908 339.164 157.088 347.512 C 154.851 351.386 150.717 353.774 146.242 353.774 L 111.804 353.774 C 109.395 353.774 107.888 356.383 109.093 358.47 C 109.653 359.438 110.686 360.035 111.804 360.035 L 146.242 360.035 C 155.883 360.035 161.908 370.471 157.088 378.82 C 154.851 382.694 150.717 385.081 146.242 385.081 L 103.978 385.081 C 100.364 385.081 98.104 381.167 99.912 378.037 C 100.75 376.584 102.301 375.689 103.978 375.689 L 146.242 375.689 C 148.653 375.689 150.159 373.08 148.954 370.992 C 148.395 370.024 147.361 369.427 146.242 369.427 L 111.804 369.427 C 102.165 369.427 96.139 358.992 100.96 350.642 C 103.197 346.768 107.331 344.381 111.804 344.381 L 146.242 344.381 C 148.653 344.381 150.159 341.772 148.954 339.686 C 148.395 338.717 147.361 338.12 146.242 338.12 Z" style="fill: rgba(255, 255, 255, 0.4);"/>
  <path d="M 335.524 314.421 L 305.627 327.709 L 305.627 347.641 C 305.627 366.078 318.383 383.319 335.524 387.504 C 352.666 383.319 365.422 366.078 365.422 347.641 L 365.422 327.709 L 335.524 314.421 Z M 335.524 350.929 L 358.778 350.929 C 357.016 364.617 347.882 376.808 335.524 380.627 L 335.524 350.963 L 312.27 350.963 L 312.27 332.027 L 335.524 321.696 L 335.524 350.929 Z" style="fill: rgba(255, 255, 255, 0.4);"/>
  <path d="M 165.754 250.846 L 146.874 231.964 L 127.992 250.846 C 117.583 261.253 117.583 278.167 127.992 288.575 C 133.197 293.779 140.036 296.382 146.874 296.382 C 153.712 296.382 160.551 293.779 165.754 288.575 C 176.164 278.167 176.164 261.253 165.754 250.846 Z M 146.874 289.742 C 141.537 289.742 136.499 287.675 132.728 283.872 C 128.926 280.07 126.858 275.066 126.858 269.728 C 126.858 264.39 128.926 259.353 132.728 255.583 L 146.874 241.406 L 146.874 289.742 Z" style="fill: rgba(255, 255, 255, 0.4);"/>
  <path d="M 326.166 247.701 L 326.132 233.943 L 319.253 233.943 L 319.253 247.701 L 305.494 247.701 L 305.494 233.943 L 298.615 233.943 L 298.615 247.701 L 298.581 247.701 C 295.176 247.667 291.736 251.106 291.736 254.546 L 291.736 273.429 L 303.774 285.537 L 303.774 295.855 L 320.972 295.855 L 320.972 285.537 L 333.011 273.464 L 333.011 254.546 C 333.011 251.106 329.571 247.667 326.166 247.701 Z" style="fill: rgba(255, 255, 255, 0.4);"/>
</svg>